<svg width="210" height="210" viewBox="0 0 210 210" fill="none" xmlns="http://www.w3.org/2000/svg">
<circle cx="105" cy="105" r="104.5" stroke="white" stroke-opacity="0.2"/>
<circle cx="105" cy="105" r="64.5" stroke="white" stroke-opacity="0.2"/>
<path d="M23.9259 75.7376L23.5821 76.9216C23.2212 76.8927 22.8864 76.9284 22.5778 77.0286C22.27 77.1256 21.9926 77.2729 21.7455 77.4703C21.4961 77.6637 21.2834 77.897 21.1074 78.1703C20.9314 78.4436 20.7962 78.7426 20.702 79.0673C20.5301 79.6593 20.524 80.2391 20.6836 80.8066C20.8442 81.3709 21.1746 81.8792 21.6748 82.3316C22.176 82.7808 22.8499 83.1284 23.6965 83.3742C24.5432 83.62 25.2984 83.6875 25.9622 83.5765C26.627 83.4623 27.1782 83.2099 27.6161 82.8194C28.0548 82.4256 28.3601 81.9327 28.532 81.3407C28.6263 81.016 28.6723 80.6912 28.67 80.3661C28.6678 80.041 28.6147 79.7305 28.5108 79.4346C28.4047 79.1346 28.2476 78.8612 28.0397 78.6145C27.8295 78.3636 27.5659 78.1542 27.2489 77.9862L27.5926 76.8022C28.0665 77.0364 28.4666 77.3286 28.7929 77.6787C29.1192 78.0288 29.3699 78.4192 29.5452 78.8497C29.7173 79.2793 29.8116 79.7329 29.8282 80.2106C29.8458 80.685 29.7829 81.169 29.6397 81.6623C29.3976 82.4962 28.9785 83.1787 28.3826 83.7098C27.7866 84.2408 27.059 84.5834 26.1997 84.7378C25.3404 84.8921 24.3951 84.8195 23.3638 84.5201C22.3326 84.2206 21.4954 83.7757 20.8524 83.1852C20.2093 82.5947 19.7783 81.9156 19.5595 81.148C19.3406 80.3804 19.3522 79.5796 19.5943 78.7457C19.7376 78.2523 19.9436 77.81 20.2126 77.4187C20.4824 77.0242 20.8066 76.6921 21.1852 76.4224C21.5606 76.1517 21.9798 75.9559 22.4429 75.835C22.9028 75.7131 23.3971 75.6807 23.9259 75.7376Z" fill="white"/>
<path d="M32.4764 73.5644L23.2267 69.3086L24.6647 66.1832C24.9972 65.4606 25.3935 64.9242 25.8538 64.5741C26.311 64.2226 26.8046 64.0338 27.3347 64.0077C27.8648 63.9816 28.4023 64.094 28.9473 64.3447C29.4923 64.5955 29.9243 64.9292 30.2433 65.346C30.5624 65.7627 30.7363 66.2569 30.7652 66.8284C30.7912 67.3985 30.6393 68.0419 30.3095 68.7585L29.1459 71.2877L28.1342 70.8222L29.2812 68.3292C29.5084 67.8354 29.619 67.4047 29.613 67.0371C29.6084 66.6665 29.5048 66.3524 29.3022 66.095C29.0979 65.8332 28.8106 65.6171 28.4403 65.4467C28.0699 65.2763 27.7144 65.1967 27.3736 65.2077C27.0329 65.2188 26.7173 65.3417 26.4268 65.5766C26.1334 65.81 25.8716 66.1767 25.6417 66.6765L24.7357 68.6457L32.9918 72.4443L32.4764 73.5644ZM30.3245 67.2987L35.527 66.9342L34.9285 68.2349L29.7426 68.5633L30.3245 67.2987Z" fill="white"/>
<path d="M37.3311 64.0579L28.8483 58.4266L32.2469 53.3071L33.1581 53.912L30.4415 58.0043L33.3077 59.9071L35.8484 56.0799L36.7597 56.6848L34.219 60.512L37.1018 62.4258L39.8624 58.2672L40.7737 58.8721L37.3311 64.0579Z" fill="white"/>
<path d="M45.6832 52.7528L44.799 53.6957L39.9292 44.0039L40.7998 43.0755L50.7843 47.313L49.9001 48.2559L41.5667 44.6125L41.5123 44.6705L45.6832 52.7528ZM43.1084 49.6841L46.6724 45.8834L47.4702 46.6316L43.9063 50.4322L43.1084 49.6841Z" fill="white"/>
<path d="M48.4299 37.449L47.7516 36.5909L53.7425 31.8555L54.4207 32.7136L51.9089 34.699L57.5445 41.8287L56.5773 42.5933L50.9417 35.4636L48.4299 37.449Z" fill="white"/>
<path d="M59.0031 28.6377L64.2817 37.3444L63.2274 37.9836L57.9488 29.2769L59.0031 28.6377Z" fill="white"/>
<path d="M67.1914 24.2627L73.3718 30.9262L73.4813 30.8787L72.8483 21.8124L74.0344 21.2986L74.6508 32.1276L73.4829 32.6335L66.0053 24.7765L67.1914 24.2627Z" fill="white"/>
<path d="M82.667 29.2578L80.2316 19.3716L86.1981 17.9017L86.4597 18.9637L81.6903 20.1387L82.5133 23.4791L86.9737 22.3803L87.2353 23.4423L82.7749 24.5411L83.6026 27.9009L88.4492 26.707L88.7108 27.769L82.667 29.2578Z" fill="white"/>

<path d="M188.377 125.79C188.882 125.839 189.316 125.685 189.677 125.329C190.039 124.973 190.285 124.494 190.415 123.891C190.511 123.451 190.523 123.05 190.452 122.689C190.38 122.331 190.239 122.032 190.03 121.794C189.819 121.558 189.556 121.406 189.238 121.338C188.972 121.28 188.73 121.294 188.512 121.379C188.296 121.468 188.103 121.599 187.933 121.773C187.767 121.947 187.619 122.136 187.491 122.338C187.365 122.542 187.258 122.731 187.17 122.905L186.679 123.857C186.555 124.101 186.399 124.369 186.21 124.661C186.021 124.956 185.791 125.226 185.521 125.473C185.253 125.724 184.938 125.91 184.576 126.032C184.214 126.154 183.8 126.164 183.334 126.063C182.796 125.947 182.34 125.701 181.967 125.325C181.593 124.953 181.336 124.47 181.197 123.877C181.056 123.287 181.069 122.61 181.234 121.846C181.388 121.133 181.637 120.541 181.979 120.069C182.321 119.6 182.73 119.261 183.206 119.052C183.681 118.846 184.195 118.783 184.748 118.862L184.479 120.106C184.096 120.057 183.758 120.116 183.464 120.283C183.173 120.454 182.93 120.697 182.737 121.011C182.546 121.329 182.408 121.686 182.323 122.081C182.223 122.541 182.208 122.97 182.278 123.368C182.351 123.767 182.499 124.103 182.722 124.375C182.948 124.647 183.242 124.823 183.605 124.901C183.936 124.973 184.224 124.939 184.472 124.799C184.719 124.659 184.94 124.452 185.135 124.179C185.329 123.906 185.513 123.605 185.686 123.276L186.3 122.127C186.692 121.398 187.144 120.851 187.657 120.487C188.17 120.123 188.761 120.014 189.432 120.159C189.989 120.279 190.442 120.535 190.792 120.926C191.144 121.321 191.38 121.799 191.499 122.361C191.621 122.926 191.613 123.526 191.476 124.161C191.337 124.803 191.099 125.348 190.761 125.797C190.427 126.247 190.03 126.575 189.572 126.781C189.113 126.991 188.631 127.049 188.125 126.957L188.377 125.79Z" fill="white"/>
<path d="M180.42 140.832C179.423 140.434 178.633 139.91 178.05 139.259C177.468 138.609 177.105 137.891 176.962 137.106C176.819 136.321 176.908 135.525 177.231 134.718C177.553 133.912 178.036 133.273 178.681 132.803C179.326 132.333 180.083 132.062 180.954 131.992C181.824 131.923 182.758 132.087 183.755 132.485C184.752 132.884 185.542 133.408 186.124 134.058C186.707 134.709 187.07 135.427 187.213 136.212C187.356 136.997 187.266 137.793 186.944 138.599C186.622 139.406 186.138 140.044 185.494 140.515C184.849 140.985 184.091 141.255 183.221 141.325C182.351 141.395 181.417 141.231 180.42 140.832ZM180.863 139.724C181.681 140.051 182.427 140.191 183.1 140.142C183.771 140.096 184.344 139.898 184.819 139.549C185.293 139.203 185.644 138.744 185.873 138.171C186.102 137.599 186.164 137.022 186.061 136.442C185.956 135.865 185.677 135.327 185.223 134.828C184.768 134.332 184.131 133.92 183.312 133.593C182.493 133.266 181.748 133.126 181.077 133.171C180.404 133.22 179.831 133.418 179.357 133.764C178.882 134.113 178.53 134.574 178.302 135.146C178.073 135.719 178.011 136.294 178.116 136.871C178.219 137.451 178.499 137.989 178.954 138.485C179.408 138.984 180.044 139.397 180.863 139.724Z" fill="white"/>
<path d="M173.169 143.406L181.992 148.487L181.377 149.556L173.501 145.02L171.139 149.121L170.191 148.575L173.169 143.406Z" fill="white"/>
<path d="M172.43 162.316L171.669 163.286L166.364 159.126C165.816 158.697 165.429 158.184 165.201 157.589C164.973 156.998 164.919 156.372 165.037 155.71C165.158 155.051 165.465 154.407 165.958 153.779C166.451 153.15 167.003 152.699 167.614 152.424C168.228 152.152 168.85 152.054 169.48 152.131C170.111 152.213 170.7 152.469 171.248 152.898L176.553 157.058L175.792 158.028L170.565 153.93C170.174 153.623 169.759 153.436 169.318 153.369C168.881 153.304 168.45 153.362 168.026 153.543C167.602 153.729 167.215 154.045 166.866 154.491C166.516 154.937 166.301 155.387 166.222 155.843C166.145 156.301 166.191 156.733 166.361 157.14C166.531 157.552 166.812 157.911 167.203 158.217L172.43 162.316Z" fill="white"/>
<path d="M166.202 167.366L166.948 168.166L161.366 173.376L160.62 172.577L162.96 170.392L156.759 163.748L157.66 162.907L163.861 169.551L166.202 167.366Z" fill="white"/>
<path d="M156.386 177.014L150.411 168.77L151.41 168.046L157.384 176.291L156.386 177.014Z" fill="white"/>
<path d="M138.944 181.387C138.444 180.437 138.183 179.525 138.161 178.653C138.14 177.78 138.33 176.998 138.73 176.308C139.131 175.617 139.716 175.07 140.484 174.665C141.252 174.261 142.034 174.089 142.83 174.149C143.626 174.209 144.378 174.495 145.086 175.007C145.793 175.518 146.397 176.249 146.897 177.199C147.398 178.149 147.658 179.061 147.68 179.934C147.701 180.806 147.511 181.588 147.111 182.278C146.71 182.969 146.126 183.516 145.357 183.921C144.589 184.325 143.807 184.498 143.011 184.437C142.215 184.377 141.463 184.091 140.756 183.579C140.048 183.068 139.444 182.337 138.944 181.387ZM140 180.831C140.41 181.611 140.888 182.201 141.431 182.6C141.972 183.001 142.536 183.223 143.124 183.265C143.709 183.309 144.274 183.188 144.82 182.9C145.365 182.613 145.787 182.215 146.085 181.706C146.379 181.199 146.516 180.608 146.494 179.934C146.47 179.262 146.252 178.535 145.842 177.755C145.431 176.975 144.955 176.385 144.414 175.984C143.871 175.585 143.307 175.363 142.722 175.319C142.134 175.276 141.567 175.399 141.021 175.686C140.476 175.973 140.056 176.37 139.761 176.878C139.463 177.386 139.327 177.977 139.351 178.65C139.373 179.324 139.589 180.051 140 180.831Z" fill="white"/>
<path d="M127.27 190.844L124.152 181.151L125.288 180.786L133.018 186.697L133.112 186.667L130.664 179.057L131.838 178.679L134.956 188.372L133.82 188.737L126.065 182.813L125.97 182.843L128.425 190.473L127.27 190.844Z" fill="white"/>
<path d="M114.256 190.602C114.388 191.092 114.683 191.445 115.143 191.659C115.603 191.874 116.138 191.937 116.748 191.849C117.194 191.784 117.574 191.655 117.888 191.462C118.198 191.27 118.428 191.034 118.579 190.754C118.726 190.475 118.776 190.175 118.729 189.853C118.69 189.584 118.593 189.362 118.437 189.187C118.278 189.016 118.088 188.881 117.866 188.783C117.644 188.688 117.416 188.615 117.181 188.566C116.947 188.519 116.732 188.485 116.538 188.463L115.475 188.336C115.203 188.305 114.897 188.252 114.558 188.178C114.215 188.103 113.882 187.983 113.556 187.816C113.227 187.652 112.943 187.422 112.702 187.125C112.462 186.829 112.307 186.444 112.239 185.972C112.16 185.427 112.231 184.915 112.453 184.434C112.671 183.953 113.034 183.544 113.54 183.206C114.044 182.868 114.683 182.644 115.457 182.531C116.179 182.427 116.82 182.452 117.382 182.609C117.941 182.766 118.401 183.03 118.763 183.403C119.122 183.776 119.361 184.236 119.481 184.781L118.221 184.964C118.133 184.588 117.96 184.292 117.7 184.075C117.438 183.862 117.126 183.719 116.764 183.648C116.4 183.58 116.017 183.575 115.617 183.633C115.151 183.701 114.744 183.837 114.395 184.042C114.047 184.25 113.784 184.505 113.607 184.809C113.431 185.116 113.369 185.453 113.422 185.82C113.471 186.155 113.604 186.414 113.821 186.596C114.039 186.779 114.309 186.914 114.633 187.001C114.957 187.088 115.304 187.155 115.672 187.202L116.964 187.377C117.784 187.489 118.454 187.721 118.974 188.075C119.494 188.428 119.803 188.944 119.902 189.623C119.983 190.187 119.902 190.701 119.658 191.165C119.411 191.633 119.045 192.021 118.561 192.329C118.074 192.641 117.508 192.844 116.866 192.937C116.216 193.031 115.622 192.998 115.083 192.839C114.545 192.682 114.099 192.425 113.746 192.068C113.389 191.711 113.166 191.28 113.076 190.774L114.256 190.602Z" fill="white"/>
<path d="M104.308 85.0185C104.405 84.7821 104.57 84.5799 104.782 84.4375C104.994 84.2952 105.244 84.2191 105.5 84.2191C105.755 84.2191 106.005 84.2952 106.217 84.4375C106.429 84.5799 106.594 84.7821 106.691 85.0185L111.561 96.7312C111.652 96.9504 111.802 97.1402 111.994 97.2797C112.186 97.4192 112.413 97.503 112.65 97.5219L125.295 98.5348C126.439 98.6265 126.901 100.054 126.031 100.799L116.396 109.054C116.216 109.208 116.082 109.408 116.009 109.633C115.935 109.858 115.925 110.099 115.979 110.33L118.924 122.671C118.983 122.918 118.968 123.178 118.88 123.417C118.791 123.655 118.634 123.863 118.428 124.012C118.222 124.162 117.977 124.247 117.722 124.257C117.468 124.267 117.216 124.201 116.999 124.069L106.171 117.457C105.969 117.334 105.736 117.269 105.5 117.269C105.263 117.269 105.03 117.334 104.828 117.457L94 124.071C93.7829 124.204 93.5313 124.269 93.2769 124.259C93.0225 124.249 92.7768 124.164 92.5709 124.014C92.3649 123.865 92.2078 123.658 92.1196 123.419C92.0313 123.18 92.0158 122.92 92.075 122.673L95.0198 110.33C95.0744 110.099 95.0644 109.858 94.9908 109.633C94.9172 109.408 94.7829 109.207 94.6027 109.054L84.9686 100.799C84.7756 100.633 84.6361 100.414 84.5674 100.169C84.4987 99.9238 84.504 99.664 84.5827 99.422C84.6613 99.18 84.8097 98.9667 85.0093 98.8088C85.2088 98.6509 85.4506 98.5556 85.7042 98.5348L98.3496 97.5219C98.5862 97.503 98.813 97.4192 99.0051 97.2797C99.1971 97.1402 99.347 96.9504 99.4381 96.7312L104.308 85.0185Z" stroke="#55E6A5" stroke-width="1.5" stroke-linecap="round" stroke-linejoin="round"/>
</svg>
